<mxfile host="app.diagrams.net" modified="2024-07-07T12:15:42.693Z" agent="Mozilla/5.0 (Windows NT 10.0; Win64; x64) AppleWebKit/537.36 (KHTML, like Gecko) Chrome/126.0.0.0 Safari/537.36" etag="lCg4dZLcEgUKHzNJGyms" version="24.6.4" type="device">
  <diagram name="Page-1" id="yI1F63k1aHLhiheeUxLY">
    <mxGraphModel dx="794" dy="454" grid="1" gridSize="10" guides="1" tooltips="1" connect="1" arrows="1" fold="1" page="1" pageScale="1" pageWidth="850" pageHeight="1100" math="0" shadow="0">
      <root>
        <mxCell id="0" />
        <mxCell id="1" parent="0" />
        <mxCell id="IVQYyiOwmp4hK54MeSZP-1" value="start" style="rounded=1;whiteSpace=wrap;html=1;" vertex="1" parent="1">
          <mxGeometry x="305" y="10" width="85" height="40" as="geometry" />
        </mxCell>
        <mxCell id="IVQYyiOwmp4hK54MeSZP-2" value="" style="endArrow=classic;html=1;rounded=0;exitX=0.5;exitY=1;exitDx=0;exitDy=0;" edge="1" parent="1" source="IVQYyiOwmp4hK54MeSZP-1">
          <mxGeometry width="50" height="50" relative="1" as="geometry">
            <mxPoint x="380" y="260" as="sourcePoint" />
            <mxPoint x="348" y="80" as="targetPoint" />
          </mxGeometry>
        </mxCell>
        <mxCell id="IVQYyiOwmp4hK54MeSZP-49" style="edgeStyle=orthogonalEdgeStyle;rounded=0;orthogonalLoop=1;jettySize=auto;html=1;" edge="1" parent="1">
          <mxGeometry relative="1" as="geometry">
            <mxPoint x="412.5" y="99.5" as="targetPoint" />
            <mxPoint x="770" y="100" as="sourcePoint" />
          </mxGeometry>
        </mxCell>
        <mxCell id="IVQYyiOwmp4hK54MeSZP-3" value="Home Page" style="rounded=0;whiteSpace=wrap;html=1;" vertex="1" parent="1">
          <mxGeometry x="290" y="80" width="120" height="40" as="geometry" />
        </mxCell>
        <mxCell id="IVQYyiOwmp4hK54MeSZP-5" value="" style="endArrow=classic;html=1;rounded=0;" edge="1" parent="1">
          <mxGeometry width="50" height="50" relative="1" as="geometry">
            <mxPoint x="630" y="210" as="sourcePoint" />
            <mxPoint x="600" y="210" as="targetPoint" />
          </mxGeometry>
        </mxCell>
        <mxCell id="IVQYyiOwmp4hK54MeSZP-6" value="" style="endArrow=classic;html=1;rounded=0;exitX=0.5;exitY=1;exitDx=0;exitDy=0;" edge="1" parent="1">
          <mxGeometry width="50" height="50" relative="1" as="geometry">
            <mxPoint x="340" y="250" as="sourcePoint" />
            <mxPoint x="340" y="280" as="targetPoint" />
          </mxGeometry>
        </mxCell>
        <mxCell id="IVQYyiOwmp4hK54MeSZP-7" value="" style="endArrow=classic;html=1;rounded=0;entryX=0.5;entryY=0;entryDx=0;entryDy=0;" edge="1" parent="1" target="IVQYyiOwmp4hK54MeSZP-22">
          <mxGeometry width="50" height="50" relative="1" as="geometry">
            <mxPoint x="620" y="150" as="sourcePoint" />
            <mxPoint x="619.5" y="170" as="targetPoint" />
            <Array as="points" />
          </mxGeometry>
        </mxCell>
        <mxCell id="IVQYyiOwmp4hK54MeSZP-8" value="" style="endArrow=classic;html=1;rounded=0;exitX=0.5;exitY=1;exitDx=0;exitDy=0;" edge="1" parent="1">
          <mxGeometry width="50" height="50" relative="1" as="geometry">
            <mxPoint x="344.5" y="190" as="sourcePoint" />
            <mxPoint x="344.5" y="220" as="targetPoint" />
          </mxGeometry>
        </mxCell>
        <mxCell id="IVQYyiOwmp4hK54MeSZP-9" value="" style="endArrow=classic;html=1;rounded=0;" edge="1" parent="1">
          <mxGeometry width="50" height="50" relative="1" as="geometry">
            <mxPoint x="347" y="140" as="sourcePoint" />
            <mxPoint x="347" y="150" as="targetPoint" />
            <Array as="points">
              <mxPoint x="347" y="120" />
            </Array>
          </mxGeometry>
        </mxCell>
        <mxCell id="IVQYyiOwmp4hK54MeSZP-16" value="Select Product" style="rounded=0;whiteSpace=wrap;html=1;" vertex="1" parent="1">
          <mxGeometry x="287.5" y="220" width="120" height="40" as="geometry" />
        </mxCell>
        <mxCell id="IVQYyiOwmp4hK54MeSZP-18" value="Search Product" style="rounded=0;whiteSpace=wrap;html=1;" vertex="1" parent="1">
          <mxGeometry x="287.5" y="150" width="120" height="40" as="geometry" />
        </mxCell>
        <mxCell id="IVQYyiOwmp4hK54MeSZP-19" value="View Product With details" style="rounded=0;whiteSpace=wrap;html=1;" vertex="1" parent="1">
          <mxGeometry x="290" y="280" width="122.5" height="40" as="geometry" />
        </mxCell>
        <mxCell id="IVQYyiOwmp4hK54MeSZP-41" style="edgeStyle=orthogonalEdgeStyle;rounded=0;orthogonalLoop=1;jettySize=auto;html=1;exitX=0;exitY=0.5;exitDx=0;exitDy=0;entryX=1;entryY=0.5;entryDx=0;entryDy=0;" edge="1" parent="1" source="IVQYyiOwmp4hK54MeSZP-20" target="IVQYyiOwmp4hK54MeSZP-18">
          <mxGeometry relative="1" as="geometry" />
        </mxCell>
        <mxCell id="IVQYyiOwmp4hK54MeSZP-20" value="Login" style="rhombus;whiteSpace=wrap;html=1;" vertex="1" parent="1">
          <mxGeometry x="470" y="110" width="80" height="80" as="geometry" />
        </mxCell>
        <mxCell id="IVQYyiOwmp4hK54MeSZP-21" value="" style="endArrow=classic;html=1;rounded=0;exitX=0.5;exitY=1;exitDx=0;exitDy=0;" edge="1" parent="1">
          <mxGeometry width="50" height="50" relative="1" as="geometry">
            <mxPoint x="550" y="149.5" as="sourcePoint" />
            <mxPoint x="620" y="150" as="targetPoint" />
          </mxGeometry>
        </mxCell>
        <mxCell id="IVQYyiOwmp4hK54MeSZP-23" value="No" style="edgeLabel;html=1;align=center;verticalAlign=middle;resizable=0;points=[];" vertex="1" connectable="0" parent="IVQYyiOwmp4hK54MeSZP-21">
          <mxGeometry x="-0.0444" y="1" relative="1" as="geometry">
            <mxPoint x="-3" y="1" as="offset" />
          </mxGeometry>
        </mxCell>
        <mxCell id="IVQYyiOwmp4hK54MeSZP-39" style="edgeStyle=orthogonalEdgeStyle;rounded=0;orthogonalLoop=1;jettySize=auto;html=1;" edge="1" parent="1" source="IVQYyiOwmp4hK54MeSZP-22" target="IVQYyiOwmp4hK54MeSZP-20">
          <mxGeometry relative="1" as="geometry">
            <mxPoint x="620" y="300" as="targetPoint" />
          </mxGeometry>
        </mxCell>
        <mxCell id="IVQYyiOwmp4hK54MeSZP-40" value="Yes" style="edgeLabel;html=1;align=center;verticalAlign=middle;resizable=0;points=[];" vertex="1" connectable="0" parent="IVQYyiOwmp4hK54MeSZP-39">
          <mxGeometry x="-0.0083" y="-3" relative="1" as="geometry">
            <mxPoint x="-3" y="-3" as="offset" />
          </mxGeometry>
        </mxCell>
        <mxCell id="IVQYyiOwmp4hK54MeSZP-22" value="Register" style="rounded=0;whiteSpace=wrap;html=1;" vertex="1" parent="1">
          <mxGeometry x="560" y="200" width="120" height="40" as="geometry" />
        </mxCell>
        <mxCell id="IVQYyiOwmp4hK54MeSZP-24" style="edgeStyle=orthogonalEdgeStyle;rounded=0;orthogonalLoop=1;jettySize=auto;html=1;entryX=0.5;entryY=0;entryDx=0;entryDy=0;" edge="1" parent="1" target="IVQYyiOwmp4hK54MeSZP-20">
          <mxGeometry relative="1" as="geometry">
            <mxPoint x="407.5" y="95" as="sourcePoint" />
            <mxPoint x="517.5" y="105" as="targetPoint" />
            <Array as="points">
              <mxPoint x="510" y="95" />
            </Array>
          </mxGeometry>
        </mxCell>
        <mxCell id="IVQYyiOwmp4hK54MeSZP-38" value="" style="edgeStyle=orthogonalEdgeStyle;rounded=0;orthogonalLoop=1;jettySize=auto;html=1;" edge="1" parent="1" source="IVQYyiOwmp4hK54MeSZP-26" target="IVQYyiOwmp4hK54MeSZP-37">
          <mxGeometry relative="1" as="geometry" />
        </mxCell>
        <mxCell id="IVQYyiOwmp4hK54MeSZP-26" value="Buy Now" style="rounded=0;whiteSpace=wrap;html=1;" vertex="1" parent="1">
          <mxGeometry x="165" y="490" width="122.5" height="40" as="geometry" />
        </mxCell>
        <mxCell id="IVQYyiOwmp4hK54MeSZP-35" style="edgeStyle=orthogonalEdgeStyle;rounded=0;orthogonalLoop=1;jettySize=auto;html=1;exitX=1;exitY=0.5;exitDx=0;exitDy=0;" edge="1" parent="1">
          <mxGeometry relative="1" as="geometry">
            <mxPoint x="485" y="490" as="targetPoint" />
            <mxPoint x="390" y="400" as="sourcePoint" />
            <Array as="points">
              <mxPoint x="486" y="400" />
            </Array>
          </mxGeometry>
        </mxCell>
        <mxCell id="IVQYyiOwmp4hK54MeSZP-27" value="Buy Now&lt;div&gt;Or Add Cart&lt;/div&gt;" style="rhombus;whiteSpace=wrap;html=1;" vertex="1" parent="1">
          <mxGeometry x="300" y="360" width="95" height="80" as="geometry" />
        </mxCell>
        <mxCell id="IVQYyiOwmp4hK54MeSZP-33" value="" style="endArrow=classic;html=1;rounded=0;" edge="1" parent="1">
          <mxGeometry width="50" height="50" relative="1" as="geometry">
            <mxPoint x="344.5" y="320" as="sourcePoint" />
            <mxPoint x="344.5" y="360" as="targetPoint" />
            <Array as="points">
              <mxPoint x="344.5" y="320" />
            </Array>
          </mxGeometry>
        </mxCell>
        <mxCell id="IVQYyiOwmp4hK54MeSZP-34" style="edgeStyle=orthogonalEdgeStyle;rounded=0;orthogonalLoop=1;jettySize=auto;html=1;entryX=0.607;entryY=0.067;entryDx=0;entryDy=0;entryPerimeter=0;" edge="1" parent="1" source="IVQYyiOwmp4hK54MeSZP-27" target="IVQYyiOwmp4hK54MeSZP-26">
          <mxGeometry relative="1" as="geometry" />
        </mxCell>
        <mxCell id="IVQYyiOwmp4hK54MeSZP-36" value="Add Cart&amp;nbsp;" style="rounded=0;whiteSpace=wrap;html=1;" vertex="1" parent="1">
          <mxGeometry x="420" y="490" width="122.5" height="40" as="geometry" />
        </mxCell>
        <mxCell id="IVQYyiOwmp4hK54MeSZP-42" value="Yes" style="edgeStyle=orthogonalEdgeStyle;rounded=0;orthogonalLoop=1;jettySize=auto;html=1;exitX=1;exitY=0.5;exitDx=0;exitDy=0;" edge="1" parent="1" source="IVQYyiOwmp4hK54MeSZP-37">
          <mxGeometry x="-0.3253" relative="1" as="geometry">
            <mxPoint x="370" y="660" as="targetPoint" />
            <mxPoint as="offset" />
          </mxGeometry>
        </mxCell>
        <mxCell id="IVQYyiOwmp4hK54MeSZP-44" value="No" style="edgeStyle=orthogonalEdgeStyle;rounded=0;orthogonalLoop=1;jettySize=auto;html=1;" edge="1" parent="1" source="IVQYyiOwmp4hK54MeSZP-37">
          <mxGeometry x="-0.4394" relative="1" as="geometry">
            <mxPoint x="110" y="660" as="targetPoint" />
            <mxPoint as="offset" />
          </mxGeometry>
        </mxCell>
        <mxCell id="IVQYyiOwmp4hK54MeSZP-37" value="Payment" style="rhombus;whiteSpace=wrap;html=1;" vertex="1" parent="1">
          <mxGeometry x="178.75" y="550" width="95" height="80" as="geometry" />
        </mxCell>
        <mxCell id="IVQYyiOwmp4hK54MeSZP-48" style="edgeStyle=orthogonalEdgeStyle;rounded=0;orthogonalLoop=1;jettySize=auto;html=1;exitX=1;exitY=0.5;exitDx=0;exitDy=0;" edge="1" parent="1" source="IVQYyiOwmp4hK54MeSZP-43">
          <mxGeometry relative="1" as="geometry">
            <mxPoint x="770" y="100" as="targetPoint" />
          </mxGeometry>
        </mxCell>
        <mxCell id="IVQYyiOwmp4hK54MeSZP-43" value="Order Placed" style="rounded=0;whiteSpace=wrap;html=1;" vertex="1" parent="1">
          <mxGeometry x="305" y="660" width="122.5" height="40" as="geometry" />
        </mxCell>
        <mxCell id="IVQYyiOwmp4hK54MeSZP-47" style="edgeStyle=orthogonalEdgeStyle;rounded=0;orthogonalLoop=1;jettySize=auto;html=1;exitX=0;exitY=0.5;exitDx=0;exitDy=0;entryX=0;entryY=0.5;entryDx=0;entryDy=0;" edge="1" parent="1" source="IVQYyiOwmp4hK54MeSZP-45" target="IVQYyiOwmp4hK54MeSZP-3">
          <mxGeometry relative="1" as="geometry" />
        </mxCell>
        <mxCell id="IVQYyiOwmp4hK54MeSZP-45" value="Order Not Placed" style="rounded=0;whiteSpace=wrap;html=1;" vertex="1" parent="1">
          <mxGeometry x="58.75" y="660" width="120" height="40" as="geometry" />
        </mxCell>
      </root>
    </mxGraphModel>
  </diagram>
</mxfile>
